HIERARCHY
ROOT Hips
{
	OFFSET 0.000000 0.000000 0.000000
	CHANNELS 6 Xposition Yposition Zposition Xrotation Yrotation Zrotation
	JOINT LeftUpLeg_virtual
	{
		OFFSET 0.000000 0.000000 0.000000
		CHANNELS 3 Xrotation Yrotation Zrotation
		JOINT LeftUpLeg
		{
			OFFSET 15.427100 -6.655098 0.678600
			CHANNELS 3 Xrotation Yrotation Zrotation
			JOINT LeftLeg
			{
				OFFSET 4.081073 -39.591068 13.024000
				CHANNELS 3 Xrotation Yrotation Zrotation
				JOINT LeftFoot
				{
					OFFSET -4.081074 -37.707932 -15.979700
					CHANNELS 3 Xrotation Yrotation Zrotation
					JOINT LeftToeBase
					{
						OFFSET 5.346399 -15.068900 20.645000
						CHANNELS 3 Xrotation Yrotation Zrotation
						JOINT LeftToe_End
						{
							OFFSET 2.754700 0.931300 11.300900
							CHANNELS 3 Xrotation Yrotation Zrotation
							End Site
							{
								OFFSET 0 0 0
							}
						}
					}
				}
			}
		}
	}
	JOINT RightUpLeg_virtual
	{
		OFFSET 0.000000 0.000000 0.000000
		CHANNELS 3 Xrotation Yrotation Zrotation
		JOINT RightUpLeg
		{
			OFFSET -15.569500 -6.655098 0.678600
			CHANNELS 3 Xrotation Yrotation Zrotation
			JOINT RightLeg
			{
				OFFSET -4.081825 -39.591045 13.023800
				CHANNELS 3 Xrotation Yrotation Zrotation
				JOINT RightFoot
				{
					OFFSET 4.081824 -37.707954 -15.979600
					CHANNELS 3 Xrotation Yrotation Zrotation
					JOINT RightToeBase
					{
						OFFSET -5.346400 -15.068900 20.645000
						CHANNELS 3 Xrotation Yrotation Zrotation
						JOINT RightToe_End
						{
							OFFSET -2.754700 0.931300 11.300900
							CHANNELS 3 Xrotation Yrotation Zrotation
							End Site
							{
								OFFSET 0 0 0
							}
						}
					}
				}
			}
		}
	}
	JOINT Spine_virtual
	{
		OFFSET 0.000000 0.000000 0.000000
		CHANNELS 3 Xrotation Yrotation Zrotation
		JOINT Spine
		{
			OFFSET -0.279200 12.230698 -2.892100
			CHANNELS 3 Xrotation Yrotation Zrotation
			JOINT Spine1
			{
				OFFSET -0.232667 10.192268 -1.242267
				CHANNELS 3 Xrotation Yrotation Zrotation
				JOINT Spine1_split
				{
					OFFSET -0.232667 10.192268 -1.242267
					CHANNELS 3 Xrotation Yrotation Zrotation
					JOINT Spine2
					{
						OFFSET -0.232667 10.192268 -1.242267
						CHANNELS 3 Xrotation Yrotation Zrotation
						JOINT Neck_virtual
						{
							OFFSET 0.000000 0.000000 0.000000
							CHANNELS 3 Xrotation Yrotation Zrotation
							JOINT Neck
							{
								OFFSET -0.418800 17.814194 8.416900
								CHANNELS 3 Xrotation Yrotation Zrotation
								JOINT Head
								{
									OFFSET 0.000000 7.031097 3.806800
									CHANNELS 3 Xrotation Yrotation Zrotation
									JOINT HeadTop_End
									{
										OFFSET 0.000000 24.646606 12.978600
										CHANNELS 3 Xrotation Yrotation Zrotation
										End Site
										{
											OFFSET 0 0 0
										}
									}
								}
							}
						}
						JOINT LeftShoulder_virtual
						{
							OFFSET 0.000000 0.000000 0.000000
							CHANNELS 3 Xrotation Yrotation Zrotation
							JOINT LeftShoulder
							{
								OFFSET 8.476499 7.247704 -3.868750
								CHANNELS 3 Xrotation Yrotation Zrotation
								JOINT LeftShoulder_split
								{
									OFFSET 8.476499 7.247704 -3.868750
									CHANNELS 3 Xrotation Yrotation Zrotation
									JOINT LeftArm
									{
										OFFSET 9.308998 -2.777710 0.208600
										CHANNELS 3 Xrotation Yrotation Zrotation
										JOINT LeftForeArm
										{
											OFFSET 29.972298 0.000000 0.000000
											CHANNELS 3 Xrotation Yrotation Zrotation
											JOINT LeftHand
											{
												OFFSET 26.026505 0.000000 0.000000
												CHANNELS 3 Xrotation Yrotation Zrotation
												End Site
												{
													OFFSET 0 0 0
												}
											}
										}
									}
								}
							}
						}
						JOINT RightShoulder_virtual
						{
							OFFSET 0.000000 0.000000 0.000000
							CHANNELS 3 Xrotation Yrotation Zrotation
							JOINT RightShoulder
							{
								OFFSET -7.570500 7.247704 -3.868750
								CHANNELS 3 Xrotation Yrotation Zrotation
								JOINT RightShoulder_split
								{
									OFFSET -7.570500 7.247704 -3.868750
									CHANNELS 3 Xrotation Yrotation Zrotation
									JOINT RightArm
									{
										OFFSET -9.308998 -2.777710 0.208500
										CHANNELS 3 Xrotation Yrotation Zrotation
										JOINT RightForeArm
										{
											OFFSET -29.972300 0.000000 0.000000
											CHANNELS 3 Xrotation Yrotation Zrotation
											JOINT RightHand
											{
												OFFSET -26.026505 0.000000 0.000000
												CHANNELS 3 Xrotation Yrotation Zrotation
												End Site
												{
													OFFSET 0 0 0
												}
											}
										}
									}
								}
							}
						}
					}
				}
			}
		}
	}
}
MOTION
Frames: 7
Frame Time: 0.03333333
0.474972 90.261055 -7.380272 0.000000 0.000000 0.000000 4.176565 5.420192 -0.484324 -16.737116 8.456302 8.899170 27.751074 1.241754 -0.022468 -15.658955 1.606631 -5.993208 -0.722813 0.231987 0.345460 0.000000 0.000000 0.000000 4.504006 4.776968 -0.757044 -6.636918 -5.498205 -6.371711 21.912070 -6.343670 7.047942 -13.860515 -18.037307 0.073777 -0.760379 0.570970 0.273383 0.000000 0.000000 0.000000 5.253198 2.290252 -1.451395 18.567439 -2.118062 -0.007931 0.233695 0.000530 1.055978 0.975761 -0.102620 0.037416 0.000000 0.000000 0.000000 1.075790 -0.476382 0.486649 17.831587 3.050456 -0.646414 11.357176 2.533893 1.908818 0.000000 0.000000 0.000000 0.906037 -0.008599 -0.055789 12.397513 -36.773462 -0.315928 1.658335 -1.282639 -3.059617 12.495128 17.250608 -47.242390 -1.315332 -37.013803 0.006040 0.000000 0.000000 0.000000 0.275640 -0.170945 0.782474 0.860364 -1.764681 7.264679 1.639784 5.304549 -1.583779 -0.518556 16.893662 36.745240 0.654608 14.985689 1.223766 0.000000 0.000000 0.000000 
0.531208 90.351143 -7.235271 0.000000 0.000000 0.000000 3.943239 5.472052 -0.387353 -16.361153 8.678644 8.791866 27.399502 1.228470 -0.079343 -15.560470 1.588122 -5.838046 -0.701659 0.241368 0.395298 0.000000 0.000000 0.000000 4.324902 4.815799 -0.667495 -6.329368 -5.447438 -6.481996 21.694866 -6.195788 6.987896 -13.592906 -18.045985 0.138486 -0.746972 0.562857 0.291399 0.000000 0.000000 0.000000 4.991011 2.475761 -1.316493 17.980068 -2.147896 0.008398 0.272337 -0.030028 0.973378 0.984853 -0.157900 0.020350 0.000000 0.000000 0.000000 1.102467 -0.519411 0.389451 17.803195 2.305287 -0.366575 11.377551 0.011888 3.060201 0.000000 0.000000 0.000000 0.980078 -0.069229 -0.133279 12.117544 -36.522189 -0.282829 1.693727 -0.980730 -2.907851 14.045034 17.921950 -47.498850 -1.359879 -36.612478 -0.066321 0.000000 0.000000 0.000000 0.316508 -0.218864 0.740031 0.579143 -1.953484 6.874790 1.863760 5.409216 -1.450746 0.705812 16.114691 36.790022 0.708524 14.962936 1.121003 0.000000 0.000000 0.000000 
0.570062 90.405884 -7.172428 0.000000 0.000000 0.000000 3.736350 5.494457 -0.346546 -16.109800 8.818026 8.682510 27.129112 1.176175 -0.075177 -15.457116 1.564886 -5.691697 -0.666786 0.254203 0.401838 0.000000 0.000000 0.000000 4.160532 4.817909 -0.624591 -6.053436 -5.399949 -6.518349 21.537098 -6.056433 6.959546 -13.386464 -18.063494 0.207412 -0.795513 0.555343 0.303567 0.000000 0.000000 0.000000 4.769962 2.644746 -1.234551 17.470210 -2.099286 0.027265 0.346885 -0.057966 0.961200 1.024738 -0.194334 0.006421 0.000000 0.000000 0.000000 1.118855 -0.546025 0.350453 17.668902 1.640408 -0.123403 11.323537 -2.087393 3.997347 0.000000 0.000000 0.000000 1.081060 -0.126267 -0.134280 11.836801 -36.058498 -0.247672 1.793264 -0.637239 -2.766666 15.075938 18.143578 -48.038452 -1.474567 -36.394031 -0.183567 0.000000 0.000000 0.000000 0.380046 -0.259578 0.749468 0.394904 -2.148146 6.633547 2.106491 5.640024 -1.363901 1.008106 15.527136 37.414912 0.688524 14.787426 1.060350 0.000000 0.000000 0.000000 
0.593731 90.414627 -7.154774 0.000000 0.000000 0.000000 3.536876 5.521756 -0.340217 -15.964350 8.808516 8.562267 26.976624 1.066574 -0.001910 -15.324691 1.528216 -5.594876 -0.621387 0.268526 0.365040 0.000000 0.000000 0.000000 3.975003 4.812677 -0.608607 -5.803725 -5.343873 -6.489686 21.480518 -5.950628 6.956349 -13.294308 -18.113407 0.245673 -0.864092 0.550331 0.306192 0.000000 0.000000 0.000000 4.562461 2.806597 -1.187720 17.049651 -1.978331 0.046711 0.442880 -0.076309 1.008671 1.049026 -0.177845 -0.055835 0.000000 0.000000 0.000000 1.112026 -0.553328 0.359318 17.479385 1.081650 0.044538 11.259143 -3.762963 4.753820 0.000000 0.000000 0.000000 1.186060 -0.174504 -0.080093 11.563871 -35.481678 -0.249325 1.818867 -0.230687 -2.660257 15.592125 17.933198 -48.708893 -1.684544 -36.086109 -0.345008 0.000000 0.000000 0.000000 0.447584 -0.283117 0.797768 0.321626 -2.316102 6.623046 2.325313 5.866615 -1.272509 0.515596 15.182404 38.558450 0.631301 14.391929 1.010512 0.000000 0.000000 0.000000 
0.603373 90.382904 -7.158951 0.000000 0.000000 0.000000 3.325765 5.579967 -0.332814 -15.855576 8.628470 8.404030 26.914244 0.912810 0.145602 -15.175644 1.490145 -5.535806 -0.559529 0.280687 0.294174 0.000000 0.000000 0.000000 3.747249 4.841636 -0.592116 -5.567328 -5.297287 -6.436559 21.547027 -5.888577 6.966804 -13.336725 -18.215758 0.239280 -0.911617 0.549018 0.302414 0.000000 0.000000 0.000000 4.350039 2.996464 -1.142912 16.732927 -1.792404 0.060677 0.544758 -0.081681 1.091712 1.030470 -0.169817 -0.161731 0.000000 0.000000 0.000000 1.069227 -0.542295 0.403907 17.279286 0.659483 0.113160 11.233153 -5.052168 5.354791 0.000000 0.000000 0.000000 1.268474 -0.205822 0.001615 11.302760 -34.882268 -0.330399 1.760302 0.177321 -2.615624 15.664212 17.224347 -49.418389 -1.958087 -35.634279 -0.520946 0.000000 0.000000 0.000000 0.504628 -0.273863 0.865186 0.361337 -2.380154 6.928428 2.529809 6.043629 -1.228539 -0.547414 15.077325 40.165942 0.588883 13.767209 0.942923 0.000000 0.000000 0.000000 
0.597801 90.325745 -7.171928 0.000000 0.000000 0.000000 3.089752 5.676513 -0.287481 -15.715531 8.311779 8.189842 26.859077 0.736967 0.346009 -15.053549 1.455393 -5.489225 -0.487775 0.287525 0.205128 0.000000 0.000000 0.000000 3.453601 4.927189 -0.541574 -5.324669 -5.300137 -6.404064 21.694315 -5.876461 6.980260 -13.479082 -18.373856 0.203755 -0.926797 0.550330 0.296321 0.000000 0.000000 0.000000 4.094967 3.236794 -1.059076 16.509599 -1.553789 0.069426 0.639696 -0.076348 1.187878 1.001344 -0.149479 -0.219085 0.000000 0.000000 0.000000 0.996661 -0.516877 0.472407 17.110893 0.392698 0.079010 11.273956 -5.970122 5.804258 0.000000 0.000000 0.000000 1.315791 -0.219193 0.092070 11.053298 -34.308423 -0.534040 1.630281 0.536206 -2.625014 15.363117 16.036973 -50.143885 -2.208487 -35.151975 -0.670066 0.000000 0.000000 0.000000 0.548057 -0.237452 0.941305 0.501170 -2.251892 7.542837 2.658329 6.053574 -1.194563 -2.016808 15.112845 42.123651 0.586152 13.170418 0.826602 0.000000 0.000000 0.000000 
0.583224 90.263481 -7.193840 0.000000 0.000000 0.000000 2.798684 5.833593 -0.182865 -15.487099 7.942324 7.920425 26.729049 0.550375 0.553083 -14.956031 1.412172 -5.460012 -0.468138 0.290285 0.127535 0.000000 0.000000 0.000000 3.085801 5.058508 -0.436711 -5.063307 -5.392119 -6.429556 21.866326 -5.904676 6.985364 -13.649526 -18.585829 0.175246 -0.930627 0.551959 0.291101 0.000000 0.000000 0.000000 3.774030 3.531839 -0.916997 16.359775 -1.279148 0.073858 0.716528 -0.062340 1.283314 1.018329 -0.183461 -0.284932 0.000000 0.000000 0.000000 0.901438 -0.482050 0.558419 16.995845 0.291925 -0.025396 11.395558 -6.548483 6.103586 0.000000 0.000000 0.000000 1.323261 -0.218261 0.180896 10.821041 -33.812582 -0.865656 1.453231 0.797082 -2.625198 14.769613 14.443487 -50.913620 -2.352234 -34.769700 -0.750017 0.000000 0.000000 0.000000 0.574504 -0.182571 1.023761 0.715043 -1.871275 8.408559 2.676535 5.918604 -1.223375 -3.765263 15.218597 44.359330 0.643805 12.727289 0.650706 0.000000 0.000000 0.000000 
